<svg width="1080" height="650" viewBox="0 0 1080 650" fill="none" xmlns="http://www.w3.org/2000/svg">
<path d="M861.492 351.039C869.776 351.039 876.492 357.755 876.492 366.039V458C876.492 549.127 802.619 623 711.492 623H48C39.7157 623 33 616.284 33 608V516.039C33.0002 424.912 106.873 351.039 198 351.039H425.076C436.747 403.949 483.919 443.534 540.338 443.534C596.757 443.534 643.929 403.949 655.6 351.039H861.492Z" fill="#76043D"/>
<path d="M1031.3 28C1039.58 28.0002 1046.3 34.7159 1046.3 43V133.58C1046.3 224.707 972.422 298.58 881.295 298.58H655.286C643.105 246.363 596.264 207.467 540.337 207.467C484.41 207.467 437.57 246.363 425.389 298.58H217.803C209.519 298.58 202.803 291.864 202.803 283.58V193C202.803 101.873 276.676 28 367.803 28H1031.3Z" fill="#76043D"/>
</svg>
